<mxfile host="app.diagrams.net" agent="Mozilla/5.0 (Windows NT 10.0; Win64; x64) AppleWebKit/537.36 (KHTML, like Gecko) Chrome/135.0.0.0 Safari/537.36" version="26.2.6">
  <diagram name="Improved DevSecOps Architecture" id="0">
    <mxGraphModel dx="790" dy="1154" grid="1" gridSize="10" guides="1" tooltips="1" connect="1" arrows="1" fold="1" page="1" pageScale="1" pageWidth="1500" pageHeight="900" math="0" shadow="0">
      <root>
        <mxCell id="0" />
        <mxCell id="1" parent="0" />
        <mxCell id="codeRepo" value="GitHub Repository" style="shape=rectangle;rounded=1;whiteSpace=wrap;html=1;fillColor=#f3f3f3;strokeColor=#0078d7;fontColor=#000000;" parent="1" vertex="1">
          <mxGeometry x="100" y="50" width="150" height="60" as="geometry" />
        </mxCell>
        <mxCell id="cicd" value="CI/CD Pipeline\n(GitHub Actions)" style="shape=rectangle;rounded=1;whiteSpace=wrap;html=1;fillColor=#e6f4ff;strokeColor=#0078d7;fontColor=#000000;" parent="1" vertex="1">
          <mxGeometry x="75" y="170" width="200" height="60" as="geometry" />
        </mxCell>
        <mxCell id="feedback" value="&lt;div&gt;&lt;span style=&quot;background-color: transparent; color: light-dark(rgb(0, 0, 0), rgb(237, 237, 237));&quot;&gt;Retroalimentação&lt;/span&gt;&lt;/div&gt;" style="shape=ellipse;whiteSpace=wrap;html=1;fillColor=#fce5cd;strokeColor=#cc4125;fontColor=#000000;" parent="1" vertex="1">
          <mxGeometry x="30" y="330" width="150" height="60" as="geometry" />
        </mxCell>
        <mxCell id="securityTools" value="(Bandit, Dependency-Check, Trivy, ZAP Proxy)" style="shape=rectangle;rounded=1;whiteSpace=wrap;html=1;fillColor=#ffe6e6;strokeColor=#d9534f;fontColor=#000000;" parent="1" vertex="1">
          <mxGeometry x="210" y="310" width="200" height="100" as="geometry" />
        </mxCell>
        <mxCell id="appContainer" value="Aplicação" style="shape=rectangle;rounded=1;whiteSpace=wrap;html=1;fillColor=#f9e6e6;strokeColor=#e68a00;fontColor=#000000;" parent="1" vertex="1">
          <mxGeometry x="300" y="50" width="200" height="60" as="geometry" />
        </mxCell>
        <mxCell id="database" value="Database" style="shape=ellipse;whiteSpace=wrap;html=1;fillColor=#d9ead3;strokeColor=#6aa84f;fontColor=#000000;" parent="1" vertex="1">
          <mxGeometry x="390" y="200" width="120" height="60" as="geometry" />
        </mxCell>
        <mxCell id="backup" value="Backup" style="shape=rectangle;rounded=1;whiteSpace=wrap;html=1;fillColor=#e1d5e7;strokeColor=#9673a6;fontColor=#000000;" parent="1" vertex="1">
          <mxGeometry x="560" y="210" width="200" height="100" as="geometry" />
        </mxCell>
        <mxCell id="observability" value="Observability\n(Prometheus + Grafana)" style="shape=rectangle;rounded=1;whiteSpace=wrap;html=1;fillColor=#e6ffe6;strokeColor=#5cb85c;fontColor=#000000;" parent="1" vertex="1">
          <mxGeometry x="560" y="80" width="200" height="100" as="geometry" />
        </mxCell>
        <mxCell id="connectionRepoPipeline" style="edgeStyle=orthogonalEdgeStyle;strokeWidth=2;endArrow=block;endFill=1;strokeColor=#0078d7;" parent="1" source="codeRepo" target="cicd" edge="1">
          <mxGeometry relative="1" as="geometry" />
        </mxCell>
        <mxCell id="connectionPipelineFeedback" style="edgeStyle=orthogonalEdgeStyle;strokeWidth=2;endArrow=block;endFill=1;strokeColor=#cc4125;entryX=0.423;entryY=0.03;entryDx=0;entryDy=0;entryPerimeter=0;" parent="1" source="cicd" target="securityTools" edge="1">
          <mxGeometry relative="1" as="geometry" />
        </mxCell>
        <mxCell id="connectionAppDatabase" style="edgeStyle=orthogonalEdgeStyle;strokeWidth=2;endArrow=block;endFill=1;strokeColor=#6aa84f;" parent="1" source="appContainer" target="database" edge="1">
          <mxGeometry relative="1" as="geometry" />
        </mxCell>
        <mxCell id="connectionDatabaseBackup" style="edgeStyle=orthogonalEdgeStyle;strokeWidth=2;endArrow=block;endFill=1;strokeColor=#9673a6;" parent="1" source="database" target="backup" edge="1">
          <mxGeometry relative="1" as="geometry" />
        </mxCell>
        <mxCell id="connectionAppObservability" style="edgeStyle=orthogonalEdgeStyle;strokeWidth=2;endArrow=block;endFill=1;strokeColor=#5cb85c;" parent="1" source="appContainer" target="observability" edge="1">
          <mxGeometry relative="1" as="geometry" />
        </mxCell>
        <mxCell id="Mkw6CQ2YBLN1stj1kZqy-3" style="edgeStyle=orthogonalEdgeStyle;rounded=0;orthogonalLoop=1;jettySize=auto;html=1;exitX=0.75;exitY=0;exitDx=0;exitDy=0;entryX=0.143;entryY=0.95;entryDx=0;entryDy=0;entryPerimeter=0;strokeWidth=2;" edge="1" parent="1" source="securityTools" target="appContainer">
          <mxGeometry relative="1" as="geometry" />
        </mxCell>
        <mxCell id="Mkw6CQ2YBLN1stj1kZqy-4" value="" style="endArrow=classic;html=1;rounded=0;exitX=0.5;exitY=0;exitDx=0;exitDy=0;entryX=0.25;entryY=1;entryDx=0;entryDy=0;fillColor=#f8cecc;strokeColor=#b85450;strokeWidth=2;" edge="1" parent="1" source="feedback" target="cicd">
          <mxGeometry width="50" height="50" relative="1" as="geometry">
            <mxPoint x="380" y="610" as="sourcePoint" />
            <mxPoint x="430" y="560" as="targetPoint" />
          </mxGeometry>
        </mxCell>
        <mxCell id="Mkw6CQ2YBLN1stj1kZqy-5" value="" style="endArrow=classic;html=1;rounded=0;exitX=0;exitY=0.5;exitDx=0;exitDy=0;entryX=1;entryY=0.5;entryDx=0;entryDy=0;strokeWidth=2;fillColor=#f8cecc;strokeColor=#b85450;" edge="1" parent="1" source="securityTools" target="feedback">
          <mxGeometry width="50" height="50" relative="1" as="geometry">
            <mxPoint x="380" y="610" as="sourcePoint" />
            <mxPoint x="430" y="560" as="targetPoint" />
          </mxGeometry>
        </mxCell>
      </root>
    </mxGraphModel>
  </diagram>
</mxfile>
